<svg width="24" height="24" viewBox="0 0 24 24" fill="none" xmlns="http://www.w3.org/2000/svg">
    <path d="M5.14287 12L3.42858 13.7143C1.53503 15.6079 1.53503 18.6779 3.42858 20.5715V20.5715V20.5715C5.32213 22.465 8.39218 22.465 10.2857 20.5715V20.5715L13.7143 17.1429V17.1429C15.6079 15.2493 15.6079 12.1793 13.7143 10.2857V10.2857" stroke="black" stroke-width="2" stroke-linecap="round"/>
    <path d="M18.8571 12L20.5714 10.2857C22.465 8.39217 22.465 5.32212 20.5714 3.42857V3.42857V3.42857C18.6779 1.53502 15.6078 1.53502 13.7143 3.42857V3.42857L10.2857 6.85715V6.85715C8.39214 8.7507 8.39214 11.8208 10.2857 13.7143V13.7143" stroke="black" stroke-width="2" stroke-linecap="round"/>
</svg>
